<svg width="180" height="180" viewBox="0 0 180 180" fill="none" xmlns="http://www.w3.org/2000/svg">
<rect width="180" height="180" rx="90" fill="#800020"/>
<path d="M43.3836 106.752C43.3836 106.752 43.3836 126.252 45.8211 128.69C48.2586 131.127 54.7603 130.586 55.8425 128.69C56.9248 126.793 59.905 126.524 59.905 122.19C59.905 117.856 58.8211 105.94 58.8211 105.94L43.3836 106.752Z" fill="#FAAA52"/>
<path d="M56.6518 46.3558V103.293H42.2965V123.616C42.2998 128.927 46.5995 133.232 51.91 133.232C52.2724 133.232 52.6266 133.207 52.9793 133.17H126.857C132.673 133.167 137.388 128.451 137.392 122.637V46.3558H56.6518ZM47.1699 123.616L47.1731 108.169H56.6501V123.616C56.6453 126.233 54.5263 128.353 51.91 128.357C49.2986 128.353 47.1748 126.233 47.1699 123.616ZM132.513 122.635C132.51 125.755 129.977 128.288 126.857 128.293H60.3064C61.0799 126.907 61.5235 125.315 61.5235 123.615L61.5268 105.972H61.53V51.2308H132.513V122.635Z" fill="#F7F7FB"/>
<path d="M113.395 62.063H81.8409V66.9364H113.395V62.063ZM71.2784 79.1255V84.0005H123.145V79.1255H71.2784ZM71.2784 98.6255H123.145V93.7489H71.2784V98.6255ZM71.2784 113.25H123.145V108.375H71.2784V113.25Z" fill="#F7F7FB"/>
</svg>
